<svg width="16" height="27" viewBox="0 0 16 27" fill="none" xmlns="http://www.w3.org/2000/svg">
<path d="M1.29987 25.8667C0.872091 25.4389 0.658203 24.8944 0.658203 24.2333C0.658203 23.5722 0.872091 23.0278 1.29987 22.6L10.3999 13.5L1.29987 4.4C0.872091 3.97222 0.658203 3.42778 0.658203 2.76667C0.658203 2.10556 0.872091 1.56111 1.29987 1.13333C1.72765 0.705557 2.27209 0.491669 2.9332 0.491669C3.59431 0.491669 4.13876 0.705557 4.56654 1.13333L15.2999 11.8667C15.5332 12.1 15.6989 12.3528 15.7969 12.625C15.8933 12.8972 15.9415 13.1889 15.9415 13.5C15.9415 13.8111 15.8933 14.1028 15.7969 14.375C15.6989 14.6472 15.5332 14.9 15.2999 15.1333L4.56654 25.8667C4.13876 26.2944 3.59431 26.5083 2.9332 26.5083C2.27209 26.5083 1.72765 26.2944 1.29987 25.8667Z" fill="#798648"/>
</svg>
