<svg width="22" height="28" viewBox="0 0 22 28" fill="none" xmlns="http://www.w3.org/2000/svg">
<path d="M6.99967 12.6667C7.37745 12.6667 7.69434 12.5387 7.95034 12.2827C8.20545 12.0275 8.33301 11.7111 8.33301 11.3333V8.66666H5.66634V11.3333C5.66634 11.7111 5.79434 12.0275 6.05034 12.2827C6.30545 12.5387 6.6219 12.6667 6.99967 12.6667ZM8.33301 5.99999H13.6663C13.6663 5.26666 13.4055 4.6391 12.8837 4.11732C12.361 3.59466 11.733 3.33332 10.9997 3.33332C10.2663 3.33332 9.63879 3.59466 9.11701 4.11732C8.59434 4.6391 8.33301 5.26666 8.33301 5.99999ZM14.9997 12.6667C15.3775 12.6667 15.6943 12.5387 15.9503 12.2827C16.2055 12.0275 16.333 11.7111 16.333 11.3333V8.66666H13.6663V11.3333C13.6663 11.7111 13.7943 12.0275 14.0503 12.2827C14.3055 12.5387 14.6219 12.6667 14.9997 12.6667ZM2.99967 27.3333C2.26634 27.3333 1.63879 27.0724 1.11701 26.5507C0.594341 26.028 0.333008 25.4 0.333008 24.6667V8.66666C0.333008 7.93332 0.594341 7.30577 1.11701 6.78399C1.63879 6.26132 2.26634 5.99999 2.99967 5.99999H5.66634C5.66634 4.53332 6.18856 3.27777 7.23301 2.23332C8.27745 1.18888 9.53301 0.666656 10.9997 0.666656C12.4663 0.666656 13.7219 1.18888 14.7663 2.23332C15.8108 3.27777 16.333 4.53332 16.333 5.99999H18.9997C19.733 5.99999 20.361 6.26132 20.8837 6.78399C21.4055 7.30577 21.6663 7.93332 21.6663 8.66666V24.6667C21.6663 25.4 21.4055 26.028 20.8837 26.5507C20.361 27.0724 19.733 27.3333 18.9997 27.3333H2.99967Z" fill="#FEFAE1"/>
</svg>
