<svg width="28" height="25" viewBox="0 0 28 25" fill="none" xmlns="http://www.w3.org/2000/svg">
<path d="M25.0703 0.979114C24.685 0.995874 24.3314 1.10669 24.0208 1.22911C23.7339 1.34213 22.7034 1.77524 21.0625 2.46349C19.4216 3.15173 17.2473 4.06426 14.9297 5.03901C10.2945 6.98851 5.08565 9.18145 2.41667 10.3046C2.32501 10.3428 1.95278 10.4568 1.54167 10.7708C1.1296 11.0855 0.671875 11.7686 0.671875 12.5156C0.671875 13.1182 0.972693 13.7319 1.33594 14.0833C1.69918 14.4347 2.06732 14.5989 2.375 14.7213V14.7187C3.41504 15.133 6.52093 16.3759 7.26042 16.6718C7.52272 17.4579 8.64879 20.823 8.91667 21.6692H8.91406C9.10341 22.2682 9.28797 22.6585 9.54427 22.9843C9.67242 23.1472 9.82539 23.2949 10.013 23.4114C10.085 23.4561 10.1647 23.4908 10.2448 23.5234C10.2559 23.5281 10.2674 23.5293 10.2786 23.5338L10.2474 23.526C10.2706 23.5353 10.2914 23.5491 10.3151 23.5572C10.3537 23.5705 10.3804 23.5701 10.4323 23.5807C10.615 23.6369 10.7973 23.6744 10.9661 23.6744C11.691 23.6744 12.1354 23.2812 12.1354 23.2812L12.1641 23.2604L15.2943 20.6119L19.1276 24.1588C19.1976 24.2577 19.7461 24.9999 21.0156 24.9999C21.7731 24.9999 22.372 24.625 22.7552 24.2317C23.1384 23.8384 23.3771 23.436 23.4844 22.8906L23.487 22.888C23.5726 22.4477 27.2422 4.02078 27.2422 4.02078L27.2344 4.05203C27.3486 3.54224 27.3823 3.04923 27.2474 2.54682C27.1125 2.04441 26.7484 1.55411 26.3099 1.29682C25.8714 1.03953 25.4556 0.962353 25.0703 0.979114ZM24.5443 3.89838C24.3993 4.62642 21.112 21.1411 20.9089 22.177L15.3724 17.0546L11.6302 20.2187L12.6667 16.1666C12.6667 16.1666 19.8167 8.92909 20.2474 8.50776C20.5941 8.17043 20.6667 8.05218 20.6667 7.93484C20.6667 7.77884 20.5864 7.66661 20.401 7.66661C20.2344 7.66661 20.008 7.82632 19.888 7.90099C18.3632 8.85166 11.8684 12.5529 8.67448 14.3697C8.48227 14.2927 5.59653 13.1339 4.04167 12.513C6.80735 11.349 11.5482 9.35436 15.9635 7.49734C18.2808 6.52276 20.4544 5.60941 22.0937 4.92182C23.4775 4.34141 24.1994 4.04089 24.5443 3.89838ZM20.8698 22.3671H20.8724L20.8698 22.3749C20.8715 22.3663 20.8685 22.3739 20.8698 22.3671Z" fill="#FEFAE1"/>
</svg>
