<svg width="28" height="28" viewBox="0 0 28 28" fill="none" xmlns="http://www.w3.org/2000/svg">
<path d="M14.0003 0.666626C6.63633 0.666626 0.666992 6.63596 0.666992 14C0.666992 21.364 6.63633 27.3333 14.0003 27.3333C21.3643 27.3333 27.3337 21.364 27.3337 14C27.3337 6.63596 21.3643 0.666626 14.0003 0.666626ZM21.3537 19.3333H19.6083C18.947 19.3333 18.7377 18.6786 17.5843 17.3333C16.5843 16.1666 16.067 16 15.8123 16C15.455 16 15.3337 16.088 15.3337 16.6226V18.604C15.3337 19.048 15.219 19.3333 14.1003 19.3333C12.2537 19.3333 10.167 18.0826 8.58433 15.916C6.40033 12.928 6.00033 10.3293 6.00033 9.84929C6.00033 9.58263 6.08433 9.33329 6.59366 9.33329H8.35499C8.79632 9.33329 8.96566 9.52929 9.13499 10.0453C9.91766 12.6666 11.0843 14.6666 11.6777 14.6666C11.8977 14.6666 12.0003 14.56 12.0003 13.9733V11.5573C11.9323 10.312 11.3337 10.2053 11.3337 9.75996C11.3337 9.54529 11.475 9.33329 11.747 9.33329H14.8457C15.219 9.33329 15.3337 9.54663 15.3337 10.0093V13.4666C15.3337 13.8573 15.6323 14 15.7497 14C15.9697 14 16.1763 14.0106 16.583 13.5826C17.8363 12.1053 18.9243 9.86662 18.9243 9.86662C19.0443 9.59996 19.247 9.33329 19.6883 9.33329H21.4337C21.8243 9.33329 21.9897 9.50796 22.0003 9.75062C22.0043 9.83463 21.9897 9.92796 21.959 10.028C21.739 11.0946 19.483 14.2626 19.5003 14.2626C19.4043 14.4266 19.3403 14.544 19.3337 14.668C19.327 14.7853 19.375 14.908 19.5003 15.0813C19.6857 15.348 20.091 15.8386 20.5003 16.3346C21.2403 17.2293 21.8337 18.168 21.963 18.552C21.991 18.656 22.003 18.7506 22.0003 18.8346C21.991 19.1626 21.7577 19.3333 21.3537 19.3333Z" fill="#FEFAE1"/>
</svg>
